<svg width="51" height="51" viewBox="0 0 51 51" fill="none" xmlns="http://www.w3.org/2000/svg">
<rect x="0.962402" y="0.923828" width="50" height="50" fill="#F9572E"/>
<path fill-rule="evenodd" clip-rule="evenodd" d="M18.8502 15.3788H35.5746C36.3462 15.3598 37.0918 15.6579 37.6375 16.2037C38.1833 16.7494 38.4814 17.495 38.4624 18.2666V34.991C38.4814 35.7625 38.1833 36.5082 37.6375 37.0539C37.0918 37.5997 36.3462 37.8978 35.5746 37.8788H18.8502C18.0786 37.8978 17.333 37.5997 16.7873 37.0539C16.2415 36.5082 15.9434 35.7625 15.9624 34.991V18.2666C15.9434 17.495 16.2415 16.7494 16.7873 16.2037C17.333 15.6579 18.0786 15.3598 18.8502 15.3788ZM32.353 17.8785C31.7941 17.88 31.3415 18.3326 31.34 18.8915V21.3166C31.3415 21.8755 31.7941 22.3281 32.353 22.3297H34.8965C35.455 22.3277 35.9071 21.8751 35.9084 21.3166V18.8915C35.907 18.333 35.455 17.8805 34.8965 17.8785H32.353ZM35.9197 24.8938H33.939C34.1305 25.5193 34.2279 26.1698 34.2277 26.824C34.1088 30.6009 31.0126 33.6011 27.2338 33.6011C23.455 33.6011 20.3588 30.6009 20.2398 26.824C20.2397 26.1698 20.337 25.5193 20.5286 24.8938H18.4633V34.3987C18.4645 34.8923 18.8643 35.2921 19.3579 35.2933H35.0254C35.5189 35.2921 35.9186 34.8922 35.9197 34.3987L35.9197 24.8938ZM27.2338 22.2012C24.8332 22.2768 22.941 24.271 22.9914 26.6722C23.0418 29.0734 25.016 30.9865 27.4176 30.9613C29.8193 30.9361 31.7529 28.982 31.7529 26.5803C31.7135 24.1234 29.6906 22.1633 27.2338 22.2012Z" fill="white"/>
</svg>
