<svg width="25" height="26" viewBox="0 0 25 26" fill="none" xmlns="http://www.w3.org/2000/svg">
<path fill-rule="evenodd" clip-rule="evenodd" d="M24.7433 13.341C24.7355 6.47806 19.1739 0.9165 12.311 0.908691C12.0713 0.908691 11.8497 1.03659 11.7298 1.24422C11.61 1.45185 11.61 1.70765 11.7298 1.91528C11.8497 2.12291 12.0713 2.25081 12.311 2.25081C18.4333 2.25769 23.3946 7.21906 23.4015 13.3413C23.4016 13.581 23.5295 13.8025 23.7371 13.9223C23.9447 14.042 24.2005 14.042 24.408 13.9221C24.6155 13.8022 24.7434 13.5807 24.7433 13.341ZM18.5043 24.886C17.3751 24.863 16.2561 24.6674 15.1861 24.3059C12.0023 23.1811 9.13297 21.3128 6.81652 18.8561C2.6024 14.6416 0.785899 11.3972 0.743339 8.00649C0.7411 7.82856 0.809641 7.65702 0.933882 7.52963C1.05812 7.40223 1.22789 7.32941 1.40582 7.32719H1.4144C1.78155 7.32735 2.08042 7.62255 2.08511 7.98967C2.12322 10.9976 3.82198 13.9637 7.76562 17.9073C13.8076 23.9496 18.5908 23.5566 18.8427 23.5308C19.2656 23.4799 19.6803 23.3754 20.0767 23.2198C20.5085 23.0516 20.9138 22.8221 21.2802 22.5385C21.3115 22.5141 21.3448 22.4924 21.3797 22.4736L22.2029 21.6676C22.6327 21.2564 22.6515 20.5758 22.2451 20.1415L18.8798 16.7762C18.4449 16.3701 17.7637 16.3909 17.3544 16.8229L15.6584 18.5186C15.4472 18.7296 15.1219 18.7758 14.8603 18.6319C14.7519 18.5721 14.6393 18.5097 14.5212 18.4431C11.3773 16.8511 8.82348 14.2973 7.23152 11.1534L7.19752 11.0923C7.14706 11.001 7.09798 10.9124 7.04958 10.8276C6.89931 10.5648 6.94376 10.2339 7.15805 10.02L8.85505 8.32397C9.28755 7.91428 9.30779 7.23215 8.90036 6.79752L5.53476 3.43089C5.3384 3.23624 5.07072 3.13076 4.79436 3.13913C4.50171 3.14543 4.22275 3.26431 4.01552 3.47105L3.12203 4.41981C2.95345 4.63884 2.80459 4.87237 2.67718 5.11764C2.5059 5.44627 2.10065 5.57382 1.77202 5.40254C1.44339 5.23126 1.31584 4.82601 1.48712 4.49738C1.65708 4.17024 1.85678 3.85943 2.08369 3.56888C2.09605 3.55309 2.10944 3.53765 2.12317 3.52288L3.04583 2.54323L3.05991 2.52881C3.51278 2.07207 4.12583 1.80981 4.76891 1.79768C5.41007 1.78069 6.02998 2.02821 6.48312 2.48213L9.84907 5.84876C10.7796 6.8075 10.7593 8.33825 9.80376 9.27203L8.46476 10.6107C9.91504 13.4517 12.2259 15.7617 15.0672 17.2111L16.4052 15.8735C17.3386 14.9187 18.868 14.8976 19.8275 15.8261L23.1945 19.1934C24.1236 20.153 24.1038 21.6825 23.1502 22.6177L23.1447 22.6232L22.1836 23.5644C22.1172 23.6296 22.0379 23.6802 21.9509 23.7131C21.5231 24.0241 21.0569 24.2785 20.5638 24.4699C20.0603 24.6672 19.5337 24.7995 18.9968 24.8636L18.9879 24.8646C18.8271 24.8799 18.6657 24.887 18.5043 24.886ZM12.8269 5.27281C16.996 5.27752 20.3745 8.65603 20.3792 12.8251C20.3802 13.0654 20.2525 13.2879 20.0446 13.4083C19.8367 13.5288 19.5802 13.5289 19.3722 13.4085C19.1643 13.2881 19.0365 13.0657 19.0374 12.8254C19.0334 9.39712 16.2552 6.61893 12.8269 6.61493C12.4563 6.61493 12.1558 6.31449 12.1558 5.94387C12.1558 5.57326 12.4563 5.27281 12.8269 5.27281Z" fill="#F9572E"/>
<path d="M12.311 0.908691L12.3113 0.658691H12.311V0.908691ZM24.7433 13.341L24.9933 13.3409V13.3407L24.7433 13.341ZM11.7298 1.24422L11.5133 1.11922L11.5133 1.11922L11.7298 1.24422ZM11.7298 1.91528L11.5133 2.04028L11.5133 2.04028L11.7298 1.91528ZM12.311 2.25081L12.3113 2.00081H12.311V2.25081ZM23.4015 13.3413L23.6515 13.3413V13.3411L23.4015 13.3413ZM24.408 13.9221L24.2829 13.7056L24.408 13.9221ZM15.1861 24.3059L15.1028 24.5416L15.1061 24.5427L15.1861 24.3059ZM18.5043 24.886L18.4992 25.136L18.5027 25.136L18.5043 24.886ZM6.81652 18.8561L6.99849 18.6845L6.9933 18.6793L6.81652 18.8561ZM0.743339 8.00649L0.99332 8.00335L0.99332 8.00335L0.743339 8.00649ZM0.933882 7.52963L0.754903 7.35508L0.754903 7.35508L0.933882 7.52963ZM1.40582 7.32719V7.07717L1.4027 7.07721L1.40582 7.32719ZM1.4144 7.32719L1.41451 7.07719H1.4144V7.32719ZM2.08511 7.98967L2.33509 7.9865L2.33509 7.98648L2.08511 7.98967ZM7.76562 17.9073L7.9424 17.7305L7.9424 17.7305L7.76562 17.9073ZM18.8427 23.5308L18.8682 23.7796L18.8726 23.779L18.8427 23.5308ZM20.0767 23.2198L19.986 22.9869L19.9854 22.9871L20.0767 23.2198ZM21.2802 22.5385L21.4332 22.7361L21.4338 22.7357L21.2802 22.5385ZM21.3797 22.4736L21.4981 22.6938L21.5293 22.677L21.5546 22.6522L21.3797 22.4736ZM22.2029 21.6676L22.03 21.4869L22.028 21.489L22.2029 21.6676ZM22.2451 20.1415L22.4277 19.9706L22.4219 19.9647L22.2451 20.1415ZM18.8798 16.7762L19.0567 16.5993L19.0504 16.5935L18.8798 16.7762ZM17.3544 16.8229L17.5312 16.9998L17.5359 16.9949L17.3544 16.8229ZM15.6584 18.5186L15.8351 18.6954L15.8352 18.6954L15.6584 18.5186ZM14.8603 18.6319L14.7397 18.8509L14.7398 18.8509L14.8603 18.6319ZM14.5212 18.4431L14.6441 18.2251L14.6341 18.22L14.5212 18.4431ZM7.23152 11.1534L7.45473 11.0404L7.44997 11.0318L7.23152 11.1534ZM7.19752 11.0923L6.97871 11.2132L6.97906 11.2139L7.19752 11.0923ZM7.04958 10.8276L7.2667 10.7037L7.26662 10.7036L7.04958 10.8276ZM7.15805 10.02L7.33466 10.1969L7.33477 10.1968L7.15805 10.02ZM8.85505 8.32397L8.68306 8.14241L8.67832 8.14714L8.85505 8.32397ZM8.90036 6.79752L9.08284 6.62645L9.07716 6.62077L8.90036 6.79752ZM5.53476 3.43089L5.71157 3.25414L5.71076 3.25334L5.53476 3.43089ZM4.79436 3.13913L4.79974 3.38908L4.80193 3.38902L4.79436 3.13913ZM4.01552 3.47105L3.83887 3.29398L3.83352 3.29966L4.01552 3.47105ZM3.12203 4.41981L2.94003 4.24842L2.9315 4.25747L2.92391 4.26733L3.12203 4.41981ZM2.67718 5.11764L2.89887 5.23319L2.89903 5.23288L2.67718 5.11764ZM1.77202 5.40254L1.88757 5.18085L1.88757 5.18085L1.77202 5.40254ZM1.48712 4.49738L1.70881 4.61293L1.70897 4.61264L1.48712 4.49738ZM2.08369 3.56888L1.88683 3.41479L1.88666 3.41501L2.08369 3.56888ZM2.12317 3.52288L1.94117 3.35147L1.94007 3.35267L2.12317 3.52288ZM3.04583 2.54323L2.86693 2.36855L2.86384 2.37183L3.04583 2.54323ZM3.05991 2.52881L2.88238 2.35278L2.88104 2.35416L3.05991 2.52881ZM4.76891 1.79768L4.77362 2.04764L4.77553 2.04759L4.76891 1.79768ZM6.48312 2.48213L6.30619 2.65875L6.30632 2.65889L6.48312 2.48213ZM9.84907 5.84876L10.0285 5.67463L10.0259 5.672L9.84907 5.84876ZM9.80376 9.27203L9.62902 9.09322L9.627 9.09523L9.80376 9.27203ZM8.46476 10.6107L8.288 10.4339L8.15943 10.5625L8.24209 10.7244L8.46476 10.6107ZM15.0672 17.2111L14.9537 17.4338L15.1155 17.5164L15.244 17.3879L15.0672 17.2111ZM16.4052 15.8735L16.582 16.0503L16.584 16.0482L16.4052 15.8735ZM19.8275 15.8261L20.0043 15.6493L20.0013 15.6465L19.8275 15.8261ZM23.1945 19.1934L23.3741 19.0195L23.3713 19.0167L23.1945 19.1934ZM23.1502 22.6177L22.9752 22.4392L22.9734 22.441L23.1502 22.6177ZM23.1447 22.6232L23.3196 22.8018L23.3215 22.8L23.1447 22.6232ZM22.1836 23.5644L22.0087 23.3858L22.0085 23.386L22.1836 23.5644ZM21.9509 23.7131L21.8627 23.4791L21.8311 23.491L21.8039 23.5108L21.9509 23.7131ZM20.5638 24.4699L20.4733 24.2369L20.4726 24.2372L20.5638 24.4699ZM18.9968 24.8636L19.0246 25.1121L19.0264 25.1119L18.9968 24.8636ZM18.9879 24.8646L19.0115 25.1135L19.0157 25.1131L18.9879 24.8646ZM20.3792 12.8251L20.1292 12.8254L20.1292 12.8261L20.3792 12.8251ZM12.8269 5.27281L12.8272 5.02281H12.8269V5.27281ZM20.0446 13.4083L19.9193 13.192L19.9193 13.192L20.0446 13.4083ZM19.3722 13.4085L19.4975 13.1921V13.1921L19.3722 13.4085ZM19.0374 12.8254L19.2874 12.8263L19.2874 12.8251L19.0374 12.8254ZM12.8269 6.61493L12.8272 6.36493H12.8269V6.61493ZM12.3107 1.15869C19.0358 1.16634 24.4856 6.61619 24.4933 13.3413L24.9933 13.3407C24.9853 6.33992 19.3121 0.666657 12.3113 0.658692L12.3107 1.15869ZM11.9464 1.36922C12.0216 1.23894 12.1606 1.15869 12.311 1.15869V0.658691C11.9819 0.658691 11.6779 0.834244 11.5133 1.11922L11.9464 1.36922ZM11.9464 1.79028C11.8711 1.66001 11.8711 1.4995 11.9464 1.36922L11.5133 1.11922C11.3488 1.4042 11.3488 1.7553 11.5133 2.04028L11.9464 1.79028ZM12.311 2.00081C12.1606 2.00081 12.0216 1.92056 11.9464 1.79028L11.5133 2.04028C11.6779 2.32526 11.9819 2.50081 12.311 2.50081V2.00081ZM23.6515 13.3411C23.6445 7.08092 18.5714 2.00784 12.3113 2.00081L12.3107 2.50081C18.2951 2.50753 23.1448 7.35719 23.1515 13.3416L23.6515 13.3411ZM23.8621 13.7057C23.7318 13.6306 23.6516 13.4916 23.6515 13.3413L23.1515 13.3414C23.1516 13.6704 23.3272 13.9744 23.6122 14.1388L23.8621 13.7057ZM24.2829 13.7056C24.1527 13.7808 23.9923 13.7809 23.8621 13.7057L23.6122 14.1388C23.8971 14.3032 24.2482 14.3031 24.5331 14.1386L24.2829 13.7056ZM24.4933 13.3411C24.4933 13.4914 24.4132 13.6304 24.2829 13.7056L24.5331 14.1386C24.8179 13.974 24.9934 13.6699 24.9933 13.3409L24.4933 13.3411ZM15.1061 24.5427C16.2002 24.9124 17.3445 25.1124 18.4992 25.1359L18.5094 24.636C17.4057 24.6136 16.3119 24.4224 15.2661 24.069L15.1061 24.5427ZM6.63463 19.0276C8.97837 21.5132 11.8815 23.4036 15.1028 24.5416L15.2693 24.0702C12.1231 22.9587 9.28757 21.1123 6.99841 18.6845L6.63463 19.0276ZM0.493359 8.00963C0.537171 11.5 2.41166 14.8044 6.63974 19.0328L6.9933 18.6793C2.79314 14.4788 1.03463 11.2943 0.99332 8.00335L0.493359 8.00963ZM0.754903 7.35508C0.584367 7.52995 0.490286 7.7654 0.493359 8.00964L0.99332 8.00335C0.991915 7.89172 1.03492 7.7841 1.11286 7.70417L0.754903 7.35508ZM1.4027 7.07721C1.15846 7.08026 0.92544 7.18021 0.754903 7.35508L1.11286 7.70417C1.19081 7.62425 1.29731 7.57857 1.40894 7.57717L1.4027 7.07721ZM1.4144 7.07719H1.40582V7.57719H1.4144V7.07719ZM2.33509 7.98648C2.32865 7.48258 1.91845 7.07741 1.41451 7.07719L1.41429 7.57719C1.64466 7.57729 1.83218 7.76251 1.83513 7.99287L2.33509 7.98648ZM7.9424 17.7305C4.00954 13.7977 2.3719 10.8922 2.33509 7.9865L1.83513 7.99284C1.87453 11.103 3.63442 14.1297 7.58884 18.0841L7.9424 17.7305ZM18.8173 23.2821C18.6314 23.3011 13.9253 23.7137 7.9424 17.7305L7.58884 18.0841C13.6899 24.1854 18.5502 23.812 18.8682 23.7795L18.8173 23.2821ZM19.9854 22.9871C19.6087 23.1349 19.2147 23.2342 18.8129 23.2826L18.8726 23.779C19.3165 23.7256 19.7519 23.6159 20.1681 23.4525L19.9854 22.9871ZM21.1271 22.3408C20.7797 22.6098 20.3954 22.8274 19.986 22.9869L20.1675 23.4528C20.6216 23.2759 21.0479 23.0345 21.4332 22.7361L21.1271 22.3408ZM21.2614 22.2534C21.214 22.2788 21.1689 22.3082 21.1266 22.3412L21.4338 22.7357C21.454 22.7199 21.4755 22.7059 21.4981 22.6938L21.2614 22.2534ZM22.028 21.489L21.2048 22.295L21.5546 22.6522L22.3778 21.8462L22.028 21.489ZM22.0625 20.3123C22.3754 20.6466 22.3609 21.1704 22.03 21.4869L22.3757 21.8482C22.9045 21.3423 22.9277 20.505 22.4276 19.9707L22.0625 20.3123ZM18.703 16.953L22.0683 20.3183L22.4219 19.9647L19.0566 16.5995L18.703 16.953ZM17.5359 16.9949C17.8507 16.6626 18.3746 16.6465 18.7092 16.959L19.0504 16.5935C18.5151 16.0936 17.6767 16.1193 17.1729 16.651L17.5359 16.9949ZM15.8352 18.6954L17.5312 16.9997L17.1776 16.6461L15.4816 18.3418L15.8352 18.6954ZM14.7398 18.8509C15.0989 19.0484 15.5452 18.985 15.8351 18.6954L15.4817 18.3417C15.3491 18.4742 15.145 18.5031 14.9808 18.4128L14.7398 18.8509ZM14.3984 18.6609C14.5175 18.7279 14.6307 18.7908 14.7397 18.8509L14.9809 18.4129C14.873 18.3534 14.7612 18.2914 14.644 18.2253L14.3984 18.6609ZM7.00848 11.2663C8.62449 14.4577 11.2169 17.0501 14.4083 18.6661L14.6341 18.22C11.5377 16.6521 9.02247 14.1369 7.45456 11.0405L7.00848 11.2663ZM6.97906 11.2139L7.01306 11.275L7.44997 11.0318L7.41597 10.9707L6.97906 11.2139ZM6.83246 10.9516C6.87991 11.0347 6.92823 11.1219 6.97871 11.2132L7.41633 10.9714C7.36589 10.8801 7.31605 10.7902 7.2667 10.7037L6.83246 10.9516ZM6.98144 9.84303C6.68728 10.1366 6.62627 10.5909 6.83254 10.9517L7.26662 10.7036C7.17235 10.5387 7.20023 10.3311 7.33466 10.1969L6.98144 9.84303ZM8.67832 8.14714L6.98132 9.84314L7.33477 10.1968L9.03177 8.5008L8.67832 8.14714ZM8.71797 6.9685C9.03132 7.30277 9.01575 7.82739 8.68312 8.14247L9.02698 8.50547C9.55934 8.00117 9.58427 7.16153 9.08275 6.62654L8.71797 6.9685ZM5.35796 3.60764L8.72356 6.97427L9.07716 6.62077L5.71156 3.25414L5.35796 3.60764ZM4.80193 3.38902C5.00977 3.38272 5.21108 3.46205 5.35876 3.60844L5.71076 3.25334C5.46572 3.01043 5.13167 2.8788 4.78679 2.88925L4.80193 3.38902ZM4.19209 3.64804C4.35377 3.48674 4.57141 3.39399 4.79974 3.38907L4.78898 2.88919C4.432 2.89687 4.09173 3.04188 3.83895 3.29407L4.19209 3.64804ZM3.30403 4.59121L4.19752 3.64245L3.83352 3.29966L2.94003 4.24842L3.30403 4.59121ZM2.89903 5.23288C3.01964 5.0007 3.16056 4.77964 3.32015 4.57229L2.92391 4.26733C2.74634 4.49805 2.58953 4.74403 2.45533 5.0024L2.89903 5.23288ZM1.65647 5.62424C2.10754 5.85933 2.66378 5.68425 2.89887 5.23319L2.45548 5.00209C2.34802 5.20828 2.09375 5.28831 1.88757 5.18085L1.65647 5.62424ZM1.26542 4.38183C1.03033 4.8329 1.20541 5.38914 1.65647 5.62424L1.88757 5.18085C1.68138 5.07338 1.60135 4.81912 1.70881 4.61293L1.26542 4.38183ZM1.88666 3.41501C1.65031 3.71764 1.4423 4.04138 1.26527 4.38212L1.70897 4.61264C1.87186 4.29911 2.06325 4.00122 2.28072 3.72276L1.88666 3.41501ZM1.94007 3.35267C1.92248 3.37158 1.90433 3.39242 1.88683 3.41479L2.28055 3.72298C2.28777 3.71376 2.2964 3.70372 2.30627 3.6931L1.94007 3.35267ZM2.86384 2.37183L1.94118 3.35148L2.30516 3.69429L3.22782 2.71464L2.86384 2.37183ZM2.88104 2.35416L2.86696 2.36858L3.2247 2.71789L3.23878 2.70347L2.88104 2.35416ZM4.7642 1.54773C4.05608 1.56108 3.38105 1.84987 2.88238 2.35279L3.23744 2.70484C3.64451 2.29428 4.19557 2.05854 4.77362 2.04764L4.7642 1.54773ZM6.66005 2.30551C6.15839 1.80298 5.4721 1.52896 4.76229 1.54777L4.77553 2.04759C5.34804 2.03242 5.90158 2.25344 6.30619 2.65875L6.66005 2.30551ZM10.0259 5.672L6.65991 2.30537L6.30632 2.65889L9.67227 6.02552L10.0259 5.672ZM9.97849 9.45083C11.0325 8.42079 11.0549 6.73223 10.0285 5.67465L9.66967 6.02288C10.5042 6.88278 10.4861 8.25572 9.62903 9.09323L9.97849 9.45083ZM8.64152 10.7875L9.98052 9.44883L9.627 9.09523L8.288 10.4339L8.64152 10.7875ZM15.1808 16.9884C12.3864 15.563 10.1138 13.2911 8.68742 10.4971L8.24209 10.7244C9.71634 13.6123 12.0653 15.9605 14.9537 17.4338L15.1808 16.9884ZM16.2285 15.6967L14.8905 17.0343L15.244 17.3879L16.582 16.0503L16.2285 15.6967ZM20.0013 15.6465C18.943 14.6222 17.256 14.6456 16.2265 15.6987L16.584 16.0482C17.4212 15.1919 18.793 15.1729 19.6536 16.0058L20.0013 15.6465ZM23.3713 19.0167L20.0043 15.6493L19.6507 16.0029L23.0177 19.3702L23.3713 19.0167ZM23.3253 22.7962C24.377 21.7648 24.3988 20.0778 23.3741 19.0195L23.0149 19.3673C23.8483 20.2281 23.8306 21.6003 22.9752 22.4392L23.3253 22.7962ZM23.3215 22.8L23.327 22.7945L22.9734 22.441L22.9679 22.4464L23.3215 22.8ZM22.3585 23.743L23.3196 22.8018L22.9698 22.4446L22.0087 23.3858L22.3585 23.743ZM22.0391 23.947C22.1587 23.9019 22.2675 23.8324 22.3587 23.7428L22.0085 23.386C21.9669 23.4268 21.9172 23.4586 21.8627 23.4791L22.0391 23.947ZM20.6543 24.703C21.1674 24.5037 21.6527 24.239 22.0979 23.9153L21.8039 23.5108C21.3935 23.8092 20.9463 24.0532 20.4733 24.2369L20.6543 24.703ZM19.0264 25.1119C19.5845 25.0453 20.1317 24.9078 20.655 24.7027L20.4726 24.2372C19.9889 24.4267 19.483 24.5538 18.9672 24.6154L19.0264 25.1119ZM19.0157 25.1131L19.0246 25.1121L18.969 24.6152L18.96 24.6162L19.0157 25.1131ZM18.5027 25.136C18.6726 25.1371 18.8424 25.1296 19.0115 25.1135L18.9642 24.6158C18.8119 24.6302 18.6589 24.637 18.5059 24.636L18.5027 25.136ZM20.6292 12.8248C20.6243 8.5179 17.1341 5.02767 12.8272 5.02281L12.8266 5.52281C16.8578 5.52736 20.1246 8.79416 20.1292 12.8254L20.6292 12.8248ZM20.17 13.6246C20.4554 13.4593 20.6305 13.1539 20.6292 12.8241L20.1292 12.8261C20.1298 12.9769 20.0497 13.1164 19.9193 13.192L20.17 13.6246ZM19.247 13.6249C19.5325 13.7901 19.8846 13.79 20.17 13.6246L19.9193 13.192C19.7888 13.2676 19.6279 13.2676 19.4975 13.1921L19.247 13.6249ZM18.7874 12.8245C18.7862 13.1544 18.9615 13.4597 19.247 13.6249L19.4975 13.1921C19.367 13.1166 19.2869 12.9771 19.2874 12.8263L18.7874 12.8245ZM12.8266 6.86493C16.1171 6.86877 18.7836 9.53526 18.7874 12.8257L19.2874 12.8251C19.2832 9.25899 16.3933 6.36909 12.8272 6.36493L12.8266 6.86493ZM11.9058 5.94387C11.9058 6.45256 12.3182 6.86493 12.8269 6.86493V6.36493C12.5944 6.36493 12.4058 6.17642 12.4058 5.94387H11.9058ZM12.8269 5.02281C12.3182 5.02281 11.9058 5.43518 11.9058 5.94387H12.4058C12.4058 5.71133 12.5944 5.52281 12.8269 5.52281V5.02281Z" fill="#F9572E"/>
</svg>
