<svg width="26" height="26" viewBox="0 0 26 26" fill="none" xmlns="http://www.w3.org/2000/svg">
<path fill-rule="evenodd" clip-rule="evenodd" d="M25 13.4323C24.9922 6.56937 19.4306 1.00781 12.5677 1C12.1971 1 11.8967 1.30044 11.8967 1.67106C11.8967 2.04168 12.1971 2.34212 12.5677 2.34212C18.69 2.349 23.6514 7.31037 23.6582 13.4326C23.6583 13.6723 23.7862 13.8938 23.9938 14.0136C24.2014 14.1334 24.4572 14.1333 24.6647 14.0134C24.8723 13.8935 25.0001 13.672 25 13.4323ZM18.761 24.9773C17.6318 24.9543 16.5128 24.7587 15.4428 24.3972C12.259 23.2724 9.38968 21.4041 7.07323 18.9474C2.85911 14.7329 1.04261 11.4885 1.00005 8.0978C0.997814 7.91987 1.06635 7.74833 1.1906 7.62094C1.31484 7.49354 1.4846 7.42072 1.66253 7.4185H1.67111C2.03827 7.41866 2.33713 7.71386 2.34182 8.08098C2.37993 11.0889 4.07869 14.055 8.02233 17.9986C14.0643 24.0409 18.8475 23.6479 19.0995 23.6221C19.5223 23.5712 19.937 23.4667 20.3335 23.3111C20.7652 23.1429 21.1705 22.9134 21.5369 22.6298C21.5682 22.6054 21.6015 22.5837 21.6365 22.5649L22.4596 21.7589C22.8894 21.3477 22.9082 20.6671 22.5018 20.2328L19.1365 16.8675C18.7016 16.4614 18.0204 16.4822 17.6111 16.9142L15.9151 18.6099C15.7039 18.8209 15.3787 18.8671 15.117 18.7232C15.0086 18.6634 14.896 18.601 14.7779 18.5344C11.634 16.9424 9.08019 14.3886 7.48823 11.2447L7.45423 11.1836C7.40377 11.0923 7.35469 11.0037 7.30629 10.919C7.15603 10.6561 7.20047 10.3252 7.41476 10.1113L9.11176 8.41528C9.54426 8.00559 9.56451 7.32345 9.15707 6.88883L5.79147 3.5222C5.59511 3.32755 5.32744 3.22207 5.05107 3.23044C4.75842 3.23674 4.47946 3.35562 4.27223 3.56236L3.37874 4.51112C3.21016 4.73015 3.0613 4.96367 2.93389 5.20895C2.82309 5.42153 2.6073 5.55886 2.3678 5.5692C2.1283 5.57953 1.90147 5.46131 1.77277 5.25907C1.64406 5.05682 1.63303 4.80127 1.74383 4.58869C1.91379 4.26155 2.11349 3.95074 2.3404 3.66019C2.35276 3.6444 2.36615 3.62896 2.37988 3.61419L3.30254 2.63454L3.31662 2.62012C3.76951 2.16337 4.38257 1.9011 5.02567 1.88899C5.66683 1.872 6.28675 2.11952 6.73988 2.57344L10.1059 5.94007C11.0364 6.89881 11.0161 8.42956 10.0606 9.36334L8.72157 10.702C10.1719 13.543 12.4827 15.8531 15.3241 17.3025L16.6621 15.9648C17.5955 15.01 19.1248 14.9889 20.0843 15.9174L23.4513 19.2847C24.3804 20.2443 24.3606 21.7739 23.407 22.709L23.4015 22.7145L22.4404 23.6557C22.374 23.7209 22.2948 23.7715 22.2077 23.8044C21.7799 24.1154 21.3137 24.3698 20.8206 24.5612C20.3171 24.7585 19.7906 24.8908 19.2537 24.9549L19.2447 24.9559C19.084 24.9712 18.9225 24.9784 18.761 24.9773ZM13.0836 5.36412C17.2527 5.36883 20.6312 8.74734 20.6359 12.9164C20.6369 13.1567 20.5093 13.3792 20.3013 13.4996C20.0934 13.6201 19.8369 13.6202 19.629 13.4998C19.421 13.3794 19.2932 13.157 19.2941 12.9167C19.2901 9.48843 16.5119 6.71024 13.0836 6.70624C12.713 6.70624 12.4126 6.4058 12.4126 6.03518C12.4126 5.66456 12.713 5.36412 13.0836 5.36412Z" fill="#F9572E"/>
<path d="M12.5677 1L12.568 0.75H12.5677V1ZM25 13.4323L25.25 13.4322V13.432L25 13.4323ZM12.5677 2.34212L12.568 2.09212H12.5677V2.34212ZM23.6582 13.4326L23.9082 13.4326V13.4324L23.6582 13.4326ZM23.9938 14.0136L23.8689 14.2301V14.2301L23.9938 14.0136ZM24.6647 14.0134L24.5397 13.7969L24.6647 14.0134ZM15.4428 24.3972L15.3595 24.6329L15.3628 24.6341L15.4428 24.3972ZM18.761 24.9773L18.7559 25.2273L18.7594 25.2273L18.761 24.9773ZM7.07323 18.9474L7.2552 18.7758L7.25002 18.7706L7.07323 18.9474ZM1.00005 8.0978L1.25003 8.09466L1.25003 8.09465L1.00005 8.0978ZM1.1906 7.62094L1.01162 7.44639L1.01162 7.44639L1.1906 7.62094ZM1.66253 7.4185V7.16848L1.65941 7.16852L1.66253 7.4185ZM1.67111 7.4185L1.67122 7.1685H1.67111V7.4185ZM2.34182 8.08098L2.5918 8.07781L2.5918 8.07778L2.34182 8.08098ZM8.02233 17.9986L8.19911 17.8218L8.19911 17.8218L8.02233 17.9986ZM19.0995 23.6221L19.1249 23.8709L19.1293 23.8703L19.0995 23.6221ZM20.3335 23.3111L20.2427 23.0782L20.2421 23.0784L20.3335 23.3111ZM21.5369 22.6298L21.69 22.8274L21.6905 22.827L21.5369 22.6298ZM21.6365 22.5649L21.7548 22.7851L21.786 22.7683L21.8114 22.7435L21.6365 22.5649ZM22.4596 21.7589L22.2867 21.5782L22.2847 21.5803L22.4596 21.7589ZM22.5018 20.2328L22.6844 20.0619L22.6786 20.056L22.5018 20.2328ZM19.1365 16.8675L19.3134 16.6907L19.3072 16.6848L19.1365 16.8675ZM17.6111 16.9142L17.7879 17.0911L17.7926 17.0862L17.6111 16.9142ZM15.9151 18.6099L16.0918 18.7868L16.0919 18.7867L15.9151 18.6099ZM15.117 18.7232L14.9965 18.9422L14.9966 18.9422L15.117 18.7232ZM14.7779 18.5344L14.9008 18.3164L14.8909 18.3113L14.7779 18.5344ZM7.48823 11.2447L7.71144 11.1317L7.70669 11.1231L7.48823 11.2447ZM7.45423 11.1836L7.23543 11.3045L7.23578 11.3052L7.45423 11.1836ZM7.30629 10.919L7.52341 10.795L7.52333 10.7949L7.30629 10.919ZM7.41476 10.1113L7.59137 10.2882L7.59149 10.2881L7.41476 10.1113ZM9.11176 8.41528L8.93977 8.23372L8.93504 8.23845L9.11176 8.41528ZM9.15707 6.88883L9.33956 6.71776L9.33388 6.71208L9.15707 6.88883ZM5.79147 3.5222L5.96828 3.34545L5.96748 3.34465L5.79147 3.5222ZM5.05107 3.23044L5.05645 3.48039L5.05864 3.48033L5.05107 3.23044ZM4.27223 3.56236L4.09558 3.38529L4.09023 3.39096L4.27223 3.56236ZM3.37874 4.51112L3.19674 4.33972L3.18822 4.34878L3.18063 4.35864L3.37874 4.51112ZM2.93389 5.20895L3.15559 5.3245L3.15575 5.32419L2.93389 5.20895ZM2.3678 5.5692L2.35702 5.31943H2.35702L2.3678 5.5692ZM1.74383 4.58869L1.96553 4.70424L1.96568 4.70395L1.74383 4.58869ZM2.3404 3.66019L2.14354 3.50609L2.14337 3.50631L2.3404 3.66019ZM2.37988 3.61419L2.19789 3.44278L2.19678 3.44398L2.37988 3.61419ZM3.30254 2.63454L3.12364 2.45986L3.12055 2.46314L3.30254 2.63454ZM3.31662 2.62012L3.13909 2.44409L3.13775 2.44546L3.31662 2.62012ZM5.02567 1.88899L5.03038 2.13895L5.0323 2.1389L5.02567 1.88899ZM6.73988 2.57344L6.56295 2.75006L6.56309 2.7502L6.73988 2.57344ZM10.1059 5.94007L10.2853 5.76594L10.2827 5.76331L10.1059 5.94007ZM10.0606 9.36334L9.88583 9.18453L9.88382 9.18654L10.0606 9.36334ZM8.72157 10.702L8.54482 10.5252L8.41625 10.6538L8.49891 10.8157L8.72157 10.702ZM15.3241 17.3025L15.2105 17.5252L15.3723 17.6077L15.5008 17.4792L15.3241 17.3025ZM16.6621 15.9648L16.8388 16.1416L16.8408 16.1396L16.6621 15.9648ZM20.0843 15.9174L20.2611 15.7406L20.2582 15.7378L20.0843 15.9174ZM23.4513 19.2847L23.6309 19.1108L23.6281 19.108L23.4513 19.2847ZM23.407 22.709L23.232 22.5305L23.2302 22.5323L23.407 22.709ZM23.4015 22.7145L23.5765 22.8932L23.5783 22.8913L23.4015 22.7145ZM22.4404 23.6557L22.2655 23.4771L22.2653 23.4773L22.4404 23.6557ZM22.2077 23.8044L22.1195 23.5704L22.0879 23.5823L22.0607 23.6022L22.2077 23.8044ZM20.8206 24.5612L20.7301 24.3282L20.7294 24.3285L20.8206 24.5612ZM19.2537 24.9549L19.2815 25.2034L19.2833 25.2032L19.2537 24.9549ZM19.2447 24.9559L19.2684 25.2049L19.2726 25.2044L19.2447 24.9559ZM20.6359 12.9164L20.3859 12.9167L20.3859 12.9174L20.6359 12.9164ZM13.0836 5.36412L13.0839 5.11412H13.0836V5.36412ZM20.3013 13.4996L20.176 13.2833L20.176 13.2833L20.3013 13.4996ZM19.629 13.4998L19.7542 13.2834L19.629 13.4998ZM19.2941 12.9167L19.5441 12.9176L19.5441 12.9164L19.2941 12.9167ZM13.0836 6.70624L13.0839 6.45624H13.0836V6.70624ZM12.5674 1.25C19.2925 1.25765 24.7424 6.7075 24.75 13.4326L25.25 13.432C25.242 6.43123 19.5688 0.757966 12.568 0.75L12.5674 1.25ZM12.1467 1.67106C12.1467 1.43851 12.3352 1.25 12.5677 1.25V0.75C12.059 0.75 11.6467 1.16237 11.6467 1.67106H12.1467ZM12.5677 2.09212C12.3352 2.09212 12.1467 1.90361 12.1467 1.67106H11.6467C11.6467 2.17975 12.059 2.59212 12.5677 2.59212V2.09212ZM23.9082 13.4324C23.9012 7.17223 18.8281 2.09915 12.568 2.09212L12.5674 2.59212C18.5519 2.59884 23.4015 7.4485 23.4082 13.4329L23.9082 13.4324ZM24.1188 13.797C23.9885 13.7219 23.9083 13.5829 23.9082 13.4326L23.4082 13.4327C23.4083 13.7617 23.5839 14.0657 23.8689 14.2301L24.1188 13.797ZM24.5397 13.7969C24.4095 13.8721 24.249 13.8722 24.1188 13.797L23.8689 14.2301C24.1538 14.3945 24.5049 14.3944 24.7898 14.2299L24.5397 13.7969ZM24.75 13.4324C24.7501 13.5827 24.6699 13.7217 24.5397 13.7969L24.7898 14.2299C25.0747 14.0653 25.2501 13.7612 25.25 13.4322L24.75 13.4324ZM15.3628 24.6341C16.4569 25.0037 17.6012 25.2037 18.7559 25.2272L18.7661 24.7274C17.6624 24.7049 16.5687 24.5137 15.5228 24.1604L15.3628 24.6341ZM6.89134 19.1189C9.23509 21.6045 12.1382 23.4949 15.3595 24.6329L15.5261 24.1615C12.3798 23.05 9.54428 21.2036 7.25513 18.7759L6.89134 19.1189ZM0.750073 8.10094C0.793885 11.5913 2.66837 14.8957 6.89645 19.1241L7.25002 18.7706C3.04985 14.5701 1.29134 11.3856 1.25003 8.09466L0.750073 8.10094ZM1.01162 7.44639C0.841081 7.62126 0.746999 7.85671 0.750073 8.10095L1.25003 8.09465C1.24863 7.98302 1.29163 7.87541 1.36957 7.79548L1.01162 7.44639ZM1.65941 7.16852C1.41517 7.17157 1.18215 7.27152 1.01162 7.44639L1.36957 7.79548C1.44752 7.71556 1.55402 7.66987 1.66565 7.66848L1.65941 7.16852ZM1.67111 7.1685H1.66253V7.6685H1.67111V7.1685ZM2.5918 8.07778C2.58536 7.57389 2.17516 7.16872 1.67122 7.1685L1.671 7.6685C1.90138 7.6686 2.0889 7.85382 2.09184 8.08418L2.5918 8.07778ZM8.19911 17.8218C4.26625 13.889 2.62862 10.9835 2.5918 8.07781L2.09184 8.08415C2.13125 11.1943 3.89113 14.221 7.84556 18.1754L8.19911 17.8218ZM19.0741 23.3734C18.8881 23.3924 14.182 23.8051 8.19911 17.8218L7.84555 18.1754C13.9466 24.2767 18.8069 23.9033 19.1249 23.8708L19.0741 23.3734ZM20.2421 23.0784C19.8654 23.2263 19.4714 23.3256 19.0696 23.3739L19.1293 23.8703C19.5733 23.8169 20.0086 23.7072 20.4248 23.5439L20.2421 23.0784ZM21.3839 22.4321C21.0364 22.7011 20.6521 22.9187 20.2427 23.0782L20.4242 23.5441C20.8783 23.3672 21.3046 23.1258 21.69 22.8274L21.3839 22.4321ZM21.5181 22.3447C21.4708 22.3701 21.4257 22.3995 21.3833 22.4325L21.6905 22.827C21.7108 22.8112 21.7323 22.7972 21.7548 22.7851L21.5181 22.3447ZM22.2847 21.5803L21.4615 22.3863L21.8114 22.7435L22.6345 21.9375L22.2847 21.5803ZM22.3192 20.4036C22.6321 20.7379 22.6176 21.2617 22.2868 21.5783L22.6324 21.9395C23.1612 21.4336 23.1844 20.5964 22.6843 20.062L22.3192 20.4036ZM18.9598 17.0443L22.325 20.4096L22.6786 20.056L19.3133 16.6908L18.9598 17.0443ZM17.7926 17.0862C18.1074 16.7539 18.6314 16.7378 18.9659 17.0503L19.3072 16.6848C18.7718 16.1849 17.9334 16.2106 17.4296 16.7423L17.7926 17.0862ZM16.0919 18.7867L17.7879 17.091L17.4344 16.7374L15.7384 18.4331L16.0919 18.7867ZM14.9966 18.9422C15.3556 19.1397 15.8019 19.0764 16.0918 18.7868L15.7384 18.433C15.6058 18.5655 15.4017 18.5944 15.2375 18.5041L14.9966 18.9422ZM14.6551 18.7521C14.7741 18.8193 14.8875 18.8822 14.9965 18.9422L15.2376 18.5042C15.1297 18.4447 15.0178 18.3827 14.9007 18.3166L14.6551 18.7521ZM7.2652 11.3576C8.8812 14.549 11.4736 17.1414 14.665 18.7574L14.8909 18.3113C11.7944 16.7434 9.27919 14.2282 7.71127 11.1318L7.2652 11.3576ZM7.23578 11.3052L7.26978 11.3663L7.70669 11.1231L7.67269 11.062L7.23578 11.3052ZM7.08918 11.0429C7.13662 11.126 7.18494 11.2132 7.23543 11.3045L7.67304 11.0627C7.62261 10.9714 7.57277 10.8815 7.52341 10.795L7.08918 11.0429ZM7.23815 9.93434C6.94399 10.2279 6.88298 10.6822 7.08926 11.043L7.52333 10.7949C7.42907 10.63 7.45695 10.4224 7.59137 10.2882L7.23815 9.93434ZM8.93504 8.23845L7.23804 9.93445L7.59149 10.2881L9.28849 8.59211L8.93504 8.23845ZM8.97468 7.05981C9.28804 7.39407 9.27246 7.91869 8.93984 8.23378L9.28369 8.59678C9.81606 8.09248 9.84098 7.25283 9.33946 6.71785L8.97468 7.05981ZM5.61467 3.69895L8.98027 7.06558L9.33388 6.71208L5.96828 3.34545L5.61467 3.69895ZM5.05864 3.48033C5.26649 3.47403 5.4678 3.55336 5.61547 3.69975L5.96748 3.34465C5.72243 3.10174 5.38839 2.97011 5.0435 2.98055L5.05864 3.48033ZM4.4488 3.73934C4.61048 3.57805 4.82812 3.48529 5.05645 3.48038L5.0457 2.9805C4.68872 2.98818 4.34844 3.13319 4.09567 3.38537L4.4488 3.73934ZM3.56074 4.68252L4.45423 3.73376L4.09023 3.39096L3.19674 4.33972L3.56074 4.68252ZM3.15575 5.32419C3.27636 5.092 3.41727 4.87094 3.57686 4.6636L3.18063 4.35864C3.00305 4.58936 2.84624 4.83534 2.71204 5.09371L3.15575 5.32419ZM2.37858 5.81896C2.70731 5.80478 3.00351 5.61629 3.15559 5.3245L2.7122 5.0934C2.64268 5.22678 2.50729 5.31294 2.35702 5.31943L2.37858 5.81896ZM1.56185 5.39329C1.73851 5.67088 2.04984 5.83315 2.37858 5.81896L2.35702 5.31943C2.20675 5.32591 2.06443 5.25174 1.98368 5.12485L1.56185 5.39329ZM1.52214 4.47314C1.37006 4.76493 1.3852 5.11569 1.56185 5.39329L1.98368 5.12485C1.90293 4.99795 1.89601 4.83762 1.96553 4.70424L1.52214 4.47314ZM2.14337 3.50631C1.90702 3.80895 1.69902 4.13269 1.52199 4.47343L1.96568 4.70395C2.12857 4.39041 2.31996 4.09253 2.53744 3.81407L2.14337 3.50631ZM2.19678 3.44398C2.1792 3.46289 2.16105 3.48373 2.14354 3.50609L2.53726 3.81429C2.54448 3.80507 2.55311 3.79503 2.56299 3.7844L2.19678 3.44398ZM3.12055 2.46314L2.19789 3.44279L2.56187 3.78559L3.48453 2.80594L3.12055 2.46314ZM3.13775 2.44546L3.12367 2.45988L3.48142 2.8092L3.4955 2.79478L3.13775 2.44546ZM5.02097 1.63903C4.31283 1.65237 3.63778 1.94116 3.1391 2.4441L3.49415 2.79614C3.90124 2.38558 4.45231 2.14983 5.03038 2.13895L5.02097 1.63903ZM6.91681 2.39682C6.41516 1.89429 5.72886 1.62027 5.01905 1.63908L5.0323 2.1389C5.6048 2.12373 6.15834 2.34475 6.56295 2.75006L6.91681 2.39682ZM10.2827 5.76331L6.91668 2.39668L6.56309 2.7502L9.92909 6.11683L10.2827 5.76331ZM10.2353 9.54214C11.2893 8.5121 11.3117 6.82354 10.2853 5.76596L9.92648 6.11418C10.761 6.97409 10.7429 8.34703 9.88584 9.18454L10.2353 9.54214ZM8.89833 10.8788L10.2373 9.54014L9.88382 9.18654L8.54482 10.5252L8.89833 10.8788ZM15.4377 17.0798C12.6432 15.6543 10.3706 13.3824 8.94424 10.5884L8.49891 10.8157C9.97315 13.7036 12.3221 16.0518 15.2105 17.5252L15.4377 17.0798ZM16.4853 15.788L15.1473 17.1257L15.5008 17.4792L16.8388 16.1416L16.4853 15.788ZM20.2582 15.7378C19.1998 14.7136 17.5129 14.7369 16.4833 15.79L16.8408 16.1396C17.678 15.2832 19.0498 15.2642 19.9104 16.0971L20.2582 15.7378ZM23.6281 19.108L20.2611 15.7407L19.9075 16.0942L23.2745 19.4615L23.6281 19.108ZM23.5821 22.8875C24.6338 21.8561 24.6556 20.1691 23.6309 19.1108L23.2717 19.4586C24.1052 20.3194 24.0874 21.6916 23.232 22.5306L23.5821 22.8875ZM23.5783 22.8913L23.5838 22.8858L23.2302 22.5323L23.2248 22.5378L23.5783 22.8913ZM22.6153 23.8343L23.5765 22.8931L23.2266 22.5359L22.2655 23.4771L22.6153 23.8343ZM22.2959 24.0383C22.4155 23.9932 22.5243 23.9237 22.6155 23.8342L22.2653 23.4773C22.2237 23.5181 22.174 23.5499 22.1195 23.5704L22.2959 24.0383ZM20.9111 24.7943C21.4242 24.595 21.9095 24.3303 22.3547 24.0066L22.0607 23.6022C21.6503 23.9005 21.2031 24.1445 20.7301 24.3282L20.9111 24.7943ZM19.2833 25.2032C19.8413 25.1366 20.3886 24.9991 20.9118 24.794L20.7294 24.3285C20.2457 24.518 19.7398 24.6451 19.224 24.7067L19.2833 25.2032ZM19.2726 25.2044L19.2815 25.2034L19.2258 24.7065L19.2169 24.7075L19.2726 25.2044ZM18.7594 25.2273C18.9293 25.2284 19.0992 25.2209 19.2684 25.2048L19.2211 24.7071C19.0687 24.7215 18.9157 24.7283 18.7626 24.7273L18.7594 25.2273ZM20.8859 12.9161C20.881 8.60921 17.3908 5.11898 13.0839 5.11412L13.0833 5.61412C17.1145 5.61867 20.3813 8.88547 20.3859 12.9167L20.8859 12.9161ZM20.4267 13.716C20.7121 13.5506 20.8872 13.2452 20.8859 12.9154L20.3859 12.9174C20.3865 13.0682 20.3064 13.2077 20.176 13.2833L20.4267 13.716ZM19.5037 13.7162C19.7892 13.8814 20.1413 13.8813 20.4267 13.7159L20.176 13.2833C20.0456 13.3589 19.8847 13.3589 19.7542 13.2834L19.5037 13.7162ZM19.0441 12.9158C19.0429 13.2457 19.2182 13.551 19.5037 13.7162L19.7542 13.2834C19.6237 13.2079 19.5436 13.0684 19.5441 12.9176L19.0441 12.9158ZM13.0833 6.95624C16.3738 6.96008 19.0403 9.62656 19.0441 12.917L19.5441 12.9164C19.54 9.3503 16.6501 6.4604 13.0839 6.45624L13.0833 6.95624ZM12.1626 6.03518C12.1626 6.54387 12.5749 6.95624 13.0836 6.95624V6.45624C12.8511 6.45624 12.6626 6.26772 12.6626 6.03518H12.1626ZM13.0836 5.11412C12.5749 5.11412 12.1626 5.52649 12.1626 6.03518H12.6626C12.6626 5.80263 12.8511 5.61412 13.0836 5.61412V5.11412Z" fill="#F9572E"/>
</svg>
