<svg width="51" height="51" viewBox="0 0 51 51" fill="none" xmlns="http://www.w3.org/2000/svg">
<rect x="0.962402" y="0.923828" width="50" height="50" fill="#F9572E"/>
<path d="M41.3751 33.6441C41.3462 33.5805 41.3139 33.5186 41.2784 33.4584C40.5004 32.2331 39.546 31.129 38.446 30.1819L38.4169 30.1517L38.4016 30.1373L38.3866 30.1223H38.3723C37.7396 29.519 37.3392 29.1138 37.1709 28.9066C36.8757 28.5797 36.7948 28.1122 36.9629 27.7051C37.3383 27.0124 37.7857 26.3613 38.2977 25.7625C38.7029 25.239 39.024 24.8189 39.2609 24.5023C40.9718 22.2282 41.7133 20.7749 41.4855 20.1425L41.3975 19.9948C41.273 19.8682 41.1127 19.7829 40.9381 19.7505C40.6277 19.6726 40.3046 19.6599 39.989 19.7132L35.7178 19.7425C35.6203 19.7182 35.5179 19.721 35.4218 19.7505C35.2931 19.7799 35.2282 19.7949 35.2282 19.7949L35.1545 19.8324L35.0958 19.8768C35.0326 19.9186 34.9772 19.9712 34.9322 20.0322C34.8706 20.111 34.821 20.1985 34.7848 20.2917C34.3414 21.4425 33.8107 22.5578 33.1975 23.6279C32.8315 24.241 32.4953 24.7724 32.189 25.2222C31.9595 25.5737 31.7018 25.906 31.4185 26.2157C31.243 26.3992 31.0547 26.57 30.8549 26.7267C30.6861 26.8557 30.5583 26.9098 30.4693 26.8903C30.3803 26.8698 30.296 26.8503 30.217 26.8307C30.0766 26.7402 29.9618 26.6151 29.8837 26.4674C29.791 26.287 29.7331 26.0907 29.7131 25.8888C29.6838 25.6568 29.6662 25.4568 29.6605 25.2889C29.6562 25.121 29.6587 24.8828 29.6685 24.577C29.6783 24.2704 29.6838 24.0624 29.6838 23.9541C29.6838 23.5781 29.6909 23.1701 29.7052 22.7304C29.7202 22.2904 29.7326 21.942 29.7425 21.6852C29.7523 21.4285 29.7573 21.1565 29.7575 20.8694C29.7624 20.6434 29.7449 20.4174 29.7051 20.1949C29.6708 20.0315 29.6186 19.8723 29.5495 19.7203C29.4861 19.5741 29.3802 19.4503 29.2456 19.3649C29.0919 19.2723 28.9245 19.2045 28.7496 19.164C28.0905 19.0322 27.4198 18.9676 26.7476 18.9711C25.5543 18.871 24.3528 18.9918 23.2034 19.3276C22.9902 19.4403 22.7993 19.5909 22.6401 19.7719C22.4624 19.9897 22.4375 20.1084 22.5654 20.1282C23.0544 20.1623 23.509 20.392 23.8265 20.7654L23.9152 20.944C24.0131 21.1614 24.0828 21.3905 24.1225 21.6256C24.1955 21.9823 24.24 22.3443 24.2556 22.7081C24.3057 23.325 24.3057 23.9451 24.2556 24.562C24.2069 25.0755 24.1601 25.4757 24.1152 25.7626C24.0842 26.0038 24.0168 26.239 23.9152 26.4601C23.8629 26.5726 23.8032 26.6816 23.7366 26.7863C23.7174 26.8157 23.6923 26.8408 23.6629 26.86C23.5351 26.9097 23.3991 26.935 23.262 26.9346C23.0772 26.9166 22.9019 26.8442 22.7581 26.7267C22.5313 26.5612 22.3249 26.3693 22.1432 26.1552C21.8759 25.8369 21.6352 25.4972 21.4233 25.1396C21.1567 24.7049 20.8801 24.1909 20.5934 23.5976L20.3561 23.1676C20.2076 22.8912 20.0049 22.4883 19.7482 21.9589C19.4914 21.4302 19.2642 20.9186 19.0666 20.4242C18.9994 20.2331 18.875 20.0674 18.7101 19.9496L18.6364 19.9052C18.563 19.8533 18.4832 19.8109 18.3991 19.779C18.2893 19.7343 18.1749 19.7021 18.0579 19.683L13.9949 19.7123C13.6851 19.6738 13.3745 19.7773 13.1497 19.994L13.0901 20.0829C13.0556 20.157 13.0403 20.2387 13.0458 20.3202C13.0517 20.458 13.0818 20.5937 13.1348 20.7211C13.7283 22.1145 14.3734 23.4588 15.0701 24.7538C15.767 26.0497 16.3722 27.0927 16.8858 27.8829C17.4004 28.6739 17.9244 29.4201 18.4578 30.1215C18.992 30.8236 19.3454 31.2736 19.518 31.4715C19.6914 31.6697 19.8274 31.8171 19.9259 31.9158L20.2965 32.2721C20.6226 32.5828 20.9724 32.8678 21.3426 33.1243C21.8345 33.4765 22.3441 33.8034 22.8693 34.1037C23.4836 34.4472 24.1391 34.7112 24.82 34.8893C25.5235 35.0879 26.2548 35.1705 26.9849 35.1336H28.6902C28.9836 35.1266 29.2637 35.0103 29.4758 34.8076L29.5345 34.7339C29.5852 34.6485 29.6227 34.5558 29.6455 34.4591C29.6815 34.3262 29.6991 34.1891 29.6978 34.0514C29.6847 33.6659 29.7169 33.2803 29.7938 32.9023C29.8429 32.6352 29.9278 32.376 30.0464 32.1318C30.1308 31.9712 30.2383 31.8239 30.3654 31.6945C30.4396 31.612 30.5245 31.5398 30.6177 31.4795C30.6559 31.4594 30.6954 31.4419 30.736 31.4269C31.0361 31.3629 31.3486 31.4487 31.5739 31.6572C31.9105 31.9047 32.2145 32.1937 32.4786 32.5174C32.7603 32.8586 33.0986 33.2417 33.4935 33.6665C33.8071 34.0166 34.1548 34.3345 34.5314 34.6156L34.8283 34.7933C35.0718 34.9318 35.3307 35.0413 35.5998 35.1196C35.8655 35.215 36.1512 35.2407 36.4297 35.1942L40.2263 35.1346C40.529 35.151 40.8306 35.0869 41.1006 34.9489C41.2722 34.8664 41.4051 34.7205 41.4712 34.5419C41.5112 34.3763 41.5139 34.2039 41.4792 34.0371C41.4585 33.9028 41.4236 33.7711 41.3752 33.6442L41.3751 33.6441Z" fill="white"/>
</svg>
